<svg xmlns="http://www.w3.org/2000/svg" fill="none" stroke="#000" stroke-linecap="round" stroke-width="2" viewBox="0 0 370.37 200"><path d="M41.7 41.48s-1.95 13.48-12.99 17.05c0 0-11.34 4.51-9.68-9.23.39-3.22 6.75-13.88 20.89-15.93 12.75-1.85 22.51 7.84 32.14 4.05 0 0 8.12-2.92 9.74-4.87 0 0-23.38 18-33.47 34.2-1.2 1.4-26.51 43.59-49.16 30.51-3.92-2.26 5.87-8.81 21.91-4.31 14.86 4.17 43.49 14.4 48.38-4.48 1.53-5.88-1.93-8.78-6.17-10.46 0 0-4.4-.81-5.19 1.24-.33.87 1.3 3.15 3.33.52" vector-effect="non-scaling-stroke"/><path d="M64.26 92.71c5.5-.02.05-5.68-2.73-.68-.55.99-1.48 11.46 16.51 6.21 5.68-1.67 19.35-12 43.44-36.4 0 0 33.13-31.76 39.55-29.03l-53.01 66.27s7.47-14.41 2.94-25.35c0 0-6.62-19.15-24.51-14.41 0 0-15.95 6.31-2.52 22.72 2.3 2.81 11.57 8.1 22.09 7.89 0 0 17.54-.31 27.98-7.47 6.76-4.64 9.46-8.31 12.62-16.62" vector-effect="non-scaling-stroke"/><path d="M160.61 38.5s10.4-9.23 20.36-4.27c6.67 3.32-6.94 8.84-8.31 16.25-.7.62 1.58 6.15 8.94 3.47 0 0 7.63-2.57 11.73-5.89 0 0 18.52-16.35 19.78-15.78 0 0-18.62 11.89-36.08 38.82 0 0-21.24 27.77-34.82 28.4 0 0-11.9 1.16-10-7.04.48-2.08 3.17-2.16 3.9-1.48.77.71.74 2.73-1.58 2.31m12.52-5.57s4.63-8.84 24.4-13.68l31.98-8.41s26.77-7.87 39.6-21.85c0 0 15.89-20.43-8.2-7.91-2.63 1.37-26.16 21.39-36.97 37.54-9.69 14.47-11.93 19.7-9.89 23.88 0 0 6.31 8.41 18.3-5.68 0 0 6.42-6.73 7.78-14.73" vector-effect="non-scaling-stroke"/><path d="M299.12 33.14s-21.53 5.41-40.98 34.54c0 0-23.02 31.77-34.19 31.88 0 0-13.35 1.5-11.97-6.79 0 0 .97-3.14 3.98-1.79 0 0 1.15 3.21-2.19 2.11m48.28-52.35c-.01 2.14-5.81 28.97-26.13 29.12-.77.01-18.47-2.71-2.42-22.06 12.01-14.48 40.86-19.24 52.41-12.4 10.2 6.05 16.37 20.46-10.39 34.23 0 0-6.9 1.89-9.42-.26-1.41-1.2 4.62-3.19 8.96.26 4.04 3.22-4.62 13.3-7.71 16.58-3.59 3.8-5.86 10.11-.81 12.66 8.5 4.29 24.35-8.78 26.71-22.22" vector-effect="non-scaling-stroke"/><path d="M287.66 92.71c5.5-.02.05-5.68-2.73-.68-.55.99-1.48 11.46 16.51 6.21 5.68-1.67 19.35-12 43.44-36.4 0 0 33.13-31.76 39.55-29.03l-53.01 66.27s7.47-14.41 2.94-25.35c0 0-6.62-19.15-24.51-14.41 0 0-15.95 6.31-2.52 22.72 2.3 2.81 11.57 8.1 22.09 7.89 0 0 17.54-.31 27.98-7.47 6.76-4.64 9.46-8.31 12.62-16.62" vector-effect="non-scaling-stroke"/></svg>